# xmcd
#
# Track frame offsets:
#	150
#	21317
#	37232
#	56464
#	74870
#	98247
#	115100
#	131040
#	144167
#	158187
#	180340
#	194880
#	209280
#	219755
#	231535
#
# Disc length: 3254 seconds
#
# Revision: 0
# Processed by: cddbd v1.4PL0 Copyright (c) Steve Scherf et al.
# Submitted via: dBpowerAMP V4.0
#
DISCID=e60cb40f
DTITLE=Variaty - Top of the pop
DYEAR=2002
DGENRE=Bass
TTITLE0=The power of love
TTITLE1=Wild world
TTITLE2=Zombie
TTITLE3=Heaven
TTITLE4=No body knows
TTITLE5=Take on me
TTITLE6=Hold the line
TTITLE7=Perhaps love
TTITLE8=Bad case of loving you
TTITLE9=Billie jean
TTITLE10=Take me home, country roads
TTITLE11=Another brick in the wall
TTITLE12=You are so beautifur
TTITLE13=Only you
TTITLE14=Love me tender
EXTD=df
EXTT0=
EXTT1=
EXTT2=
EXTT3=
EXTT4=
EXTT5=
EXTT6=
EXTT7=
EXTT8=
EXTT9=
EXTT10=
EXTT11=
EXTT12=
EXTT13=
EXTT14=
PLAYORDER=
